<svg width="18" height="18" viewBox="0 0 18 18" fill="none" xmlns="http://www.w3.org/2000/svg">
<path d="M9.9 5.4C9.9 4.90294 9.49706 4.5 9 4.5C8.50294 4.5 8.1 4.90294 8.1 5.4V8.1H5.4C4.90294 8.1 4.5 8.50294 4.5 9C4.5 9.49706 4.90294 9.9 5.4 9.9H8.1V12.6C8.1 13.0971 8.50294 13.5 9 13.5C9.49706 13.5 9.9 13.0971 9.9 12.6V9.9H12.6C13.0971 9.9 13.5 9.49706 13.5 9C13.5 8.50294 13.0971 8.1 12.6 8.1H9.9V5.4ZM9 0C4.032 0 0 4.032 0 9C0 13.968 4.032 18 9 18C13.968 18 18 13.968 18 9C18 4.032 13.968 0 9 0ZM9 16.2C5.031 16.2 1.8 12.969 1.8 9C1.8 5.031 5.031 1.8 9 1.8C12.969 1.8 16.2 5.031 16.2 9C16.2 12.969 12.969 16.2 9 16.2Z" fill="#71AFB6"/>
</svg>
