<svg width="56" height="48" viewBox="0 0 56 48" fill="none" xmlns="http://www.w3.org/2000/svg">
<g clip-path="url(#clip0_9646_48534)">
<path d="M54.5835 16.209C54.0618 15.5964 53.2888 15.243 52.4683 15.243H40.9206L34.7081 0.716284C34.452 0.117874 33.7549 -0.160127 33.1526 0.0943148C32.5503 0.348757 32.2705 1.0414 32.5266 1.63981L38.3455 15.243H17.6592L23.4781 1.63981C23.7342 1.0414 23.4544 0.348757 22.8521 0.0943148C22.2498 -0.160127 21.5527 0.117874 21.2966 0.716284L15.0841 15.243H3.53633C2.71116 15.243 1.94289 15.5964 1.42122 16.209C0.923273 16.798 0.709866 17.566 0.83791 18.3199L5.27205 43.9431C5.67989 46.2944 7.78077 47.9954 10.2705 47.9954H45.7389C48.2286 47.9954 50.3295 46.2897 50.7374 43.9431L55.1668 18.3199C55.2948 17.5707 55.0814 16.798 54.5835 16.209ZM48.3946 43.5473C48.186 44.763 47.0668 45.6441 45.7341 45.6441H10.2658C8.93318 45.6441 7.81397 44.763 7.60531 43.5473L3.17591 17.9241C3.16643 17.8534 3.1854 17.7922 3.23282 17.7309C3.26602 17.6932 3.36086 17.599 3.53633 17.599H14.0739L12.8836 20.3837C12.6275 20.9821 12.9073 21.6748 13.5096 21.9292C13.6613 21.9952 13.8178 22.0234 13.9743 22.0234C14.4344 22.0234 14.8754 21.7549 15.0651 21.3072L16.649 17.599H39.3509L40.9348 21.3072C41.1245 21.7549 41.5656 22.0234 42.0256 22.0234C42.1821 22.0234 42.3386 21.9952 42.4904 21.9292C43.0926 21.6748 43.3724 20.9821 43.1163 20.3837L41.926 17.599H52.4636C52.6391 17.599 52.7339 17.6885 52.7671 17.7309C52.8193 17.7922 52.8383 17.8534 52.824 17.9241L48.3946 43.5473Z" fill="white"/>
<path d="M17.8157 25.4023C17.1613 25.4023 16.6301 25.9301 16.6301 26.5803V40.1835C16.6301 40.8338 17.1613 41.3615 17.8157 41.3615C18.4702 41.3615 19.0013 40.8338 19.0013 40.1835V26.5803C19.0013 25.9301 18.4702 25.4023 17.8157 25.4023Z" fill="white"/>
<path d="M28.0024 25.4023C27.3479 25.4023 26.8168 25.9301 26.8168 26.5803V40.1835C26.8168 40.8338 27.3479 41.3615 28.0024 41.3615C28.6568 41.3615 29.188 40.8338 29.188 40.1835V26.5803C29.188 25.9301 28.6568 25.4023 28.0024 25.4023Z" fill="white"/>
<path d="M38.1891 25.4023C37.5347 25.4023 37.0035 25.9301 37.0035 26.5803V40.1835C37.0035 40.8338 37.5347 41.3615 38.1891 41.3615C38.8436 41.3615 39.3747 40.8338 39.3747 40.1835V26.5803C39.3747 25.9301 38.8436 25.4023 38.1891 25.4023Z" fill="white"/>
</g>
<defs>
<clipPath id="clip0_9646_48534">
<rect width="54.4" height="48" fill="white" transform="translate(0.800049)"/>
</clipPath>
</defs>
</svg>
