<svg width="48" height="48" viewBox="0 0 48 48" fill="none" xmlns="http://www.w3.org/2000/svg">
<path d="M47.5695 42.4818L45.8593 19.2131C45.6631 16.5404 43.411 14.4472 40.7337 14.4472H33.0896V9.29816C33.0896 4.17249 28.9171 0 23.7914 0C18.6657 0 14.4932 4.17249 14.4932 9.29816V14.4472H6.84912C4.17181 14.4472 1.91969 16.5404 1.72345 19.2131L0.0133319 42.4818C-0.0894618 43.9023 0.405819 45.3133 1.37301 46.36C2.34021 47.4066 3.71391 48 5.139 48H42.4391C43.8642 48 45.2379 47.4019 46.2051 46.36C47.177 45.3133 47.6722 43.9023 47.5695 42.4818ZM17.0023 9.29816C17.0023 5.55553 20.0488 2.5091 23.7914 2.5091C27.534 2.5091 30.5851 5.55553 30.5851 9.29816V14.4472H17.0023V9.29816ZM44.495 44.7667C43.9577 45.3461 43.2288 45.6638 42.4391 45.6638H5.14368C4.35404 45.6638 3.62513 45.3461 3.0878 44.7667C2.55047 44.1873 2.28881 43.4397 2.34488 42.6501L4.055 19.3813C4.16247 17.9235 5.39131 16.7834 6.85379 16.7834H14.4979V19.7831C14.4979 20.4746 15.0586 21.0353 15.7501 21.0353C16.4416 21.0353 17.0023 20.4746 17.0023 19.7831V16.7834H30.5851V19.7831C30.5851 20.4746 31.1458 21.0353 31.8373 21.0353C32.5289 21.0353 33.0896 20.4746 33.0896 19.7831V16.7834H40.7337C42.1961 16.7834 43.425 17.9235 43.5325 19.3813L45.2426 42.6501C45.2987 43.4397 45.0323 44.192 44.495 44.7667Z" fill="white"/>
</svg>
