<svg width="48" height="48" viewBox="0 0 48 48" fill="none" xmlns="http://www.w3.org/2000/svg">
<path d="M39.8622 47.9989C39.0976 47.9989 38.333 47.7087 37.7526 47.1283L30.1802 39.5513L26.5874 43.144C25.7675 43.9639 24.5883 44.2817 23.5059 43.9777C22.4788 43.6876 21.7187 42.8907 21.4746 41.8497L16.3158 19.8924C16.0763 18.8837 16.3757 17.8381 17.108 17.1057C17.8404 16.3733 18.8814 16.0739 19.8947 16.3135L41.8474 21.4769C42.8884 21.721 43.6853 22.481 43.9754 23.5082C44.2841 24.586 43.9616 25.7698 43.1417 26.5897L39.549 30.1824L47.1214 37.7549C48.2868 38.9202 48.2868 40.8133 47.1214 41.9741L41.9672 47.1283C41.3914 47.7087 40.6268 47.9989 39.8622 47.9989ZM30.1802 36.2948L39.3832 45.4978C39.6503 45.7649 40.0787 45.7649 40.3458 45.4978L45.5001 40.3435C45.7672 40.0764 45.7672 39.648 45.5001 39.3808L36.2971 30.1778L41.5158 24.9591C41.7507 24.7242 41.8428 24.4202 41.7599 24.1392C41.7185 23.9872 41.6033 23.7892 41.3177 23.7201L19.3696 18.5566C19.038 18.4783 18.8169 18.658 18.7386 18.7363C18.6603 18.8146 18.4807 19.0357 18.559 19.3673L23.7224 41.32C23.7915 41.6056 23.9849 41.7161 24.1416 41.7622C24.4225 41.8405 24.7311 41.7484 24.9614 41.5181L30.1802 36.2948Z" fill="white"/>
<path d="M21.1285 11.179C20.4928 11.179 19.9769 10.6631 19.9769 10.0275V1.15153C19.9769 0.515884 20.4928 0 21.1285 0C21.7641 0 22.28 0.515884 22.28 1.15153V10.0275C22.28 10.6631 21.7641 11.179 21.1285 11.179Z" fill="white"/>
<path d="M13.2796 14.4311C12.9848 14.4311 12.6901 14.3206 12.4644 14.0949L6.19084 7.81677C5.73945 7.36537 5.73945 6.6376 6.19084 6.18621C6.64224 5.73481 7.37001 5.73481 7.82141 6.18621L14.0949 12.4643C14.5463 12.9157 14.5463 13.6435 14.0949 14.0949C13.8692 14.316 13.5744 14.4311 13.2796 14.4311Z" fill="white"/>
<path d="M10.0275 22.2796H1.15153C0.515884 22.2796 0 21.7637 0 21.1281C0 20.4924 0.515884 19.9766 1.15153 19.9766H10.0275C10.6631 19.9766 11.179 20.4924 11.179 21.1281C11.179 21.7637 10.6631 22.2796 10.0275 22.2796Z" fill="white"/>
<path d="M7.00185 36.407C6.70706 36.407 6.41227 36.2964 6.18657 36.0707C5.73517 35.6194 5.73517 34.8916 6.18657 34.4402L12.4601 28.1667C12.9115 27.7153 13.6393 27.7153 14.0906 28.1667C14.542 28.6181 14.542 29.3458 14.0906 29.7972L7.81713 36.0707C7.59143 36.2964 7.29664 36.407 7.00185 36.407Z" fill="white"/>
<path d="M28.9812 14.4304C28.6864 14.4304 28.3916 14.3199 28.1659 14.0942C27.7145 13.6428 27.7145 12.915 28.1659 12.4636L34.4395 6.19011C34.8909 5.73871 35.6186 5.73871 36.07 6.19011C36.5214 6.64151 36.5214 7.36927 36.07 7.82067L29.7919 14.0942C29.5708 14.3153 29.276 14.4304 28.9812 14.4304Z" fill="white"/>
</svg>
