<svg width="48" height="48" viewBox="0 0 48 48" fill="none" xmlns="http://www.w3.org/2000/svg">
<path d="M7.81519 24.0011C7.81519 32.9248 15.0762 40.1859 23.9999 40.1859C32.9236 40.1859 40.1847 32.9295 40.1847 24.0011C40.1847 15.0775 32.9236 7.81641 23.9999 7.81641C15.0762 7.81641 7.81519 15.0775 7.81519 24.0011ZM37.8363 24.0011C37.8363 31.6285 31.6273 37.8375 23.9999 37.8375C16.3725 37.8375 10.1635 31.6332 10.1635 24.0011C10.1635 16.369 16.3725 10.1647 23.9999 10.1647C31.6273 10.1647 37.8363 16.3737 37.8363 24.0011Z" fill="white"/>
<path d="M22.8259 14.6332V24.4868L28.5089 30.1697C28.739 30.3999 29.0396 30.5126 29.3402 30.5126C29.6408 30.5126 29.9414 30.3999 30.1715 30.1697C30.6318 29.7095 30.6318 28.9674 30.1715 28.5071L25.1743 23.5146V14.6332C25.1743 13.985 24.6482 13.459 24.0001 13.459C23.352 13.459 22.8259 13.985 22.8259 14.6332Z" fill="white"/>
<path d="M37.8364 4.38669L37.8364 3.20783C37.8364 2.55968 38.3624 2.03366 39.0106 2.03366C39.6587 2.03366 40.1847 2.55968 40.1847 3.20783L40.1847 8.54325L34.793 8.54325C34.1448 8.54325 33.6188 8.01722 33.6188 7.36908C33.6188 6.72094 34.1448 6.19491 34.793 6.19491L36.3194 6.19491C32.717 3.70098 28.4243 2.34364 24 2.34364C12.0611 2.34364 2.34834 12.0564 2.34834 23.9953C2.34834 35.9342 12.0564 45.6517 24 45.6517C35.9389 45.6517 45.6517 35.9389 45.6517 24C45.6517 23.3519 46.1777 22.8258 46.8258 22.8258C47.474 22.8258 48 23.3472 48 24C48 37.2305 37.2305 48 24 48C10.7695 48 1.28425e-07 37.2305 2.86197e-07 24C4.4397e-07 10.7695 10.7695 -4.4397e-07 24 -2.86197e-07C28.9738 -0.00469612 33.8067 1.5452 37.8364 4.38669Z" fill="white"/>
</svg>
