<svg width="50" height="50" viewBox="0 0 50 50" fill="none" xmlns="http://www.w3.org/2000/svg">
<path d="M44.8269 8H5.17793C2.32231 8 0 10.3431 0 13.2242V14.3346C0.000179221 13.1804 0.00484841 15.0956 0.00484841 15.7706C0.00484841 16.4457 0.00484841 17.7133 0.00484841 16.7804V33.676C0.00484841 34.5496 0.00493598 34.2239 0.00493598 34.8989C0.00493598 35.574 0.00531454 35.1971 0.00501808 36.1218L0.00484841 37.5257C0.00484841 40.2406 2.24474 42.4516 4.99369 42.4516H45.0111C47.7649 42.4516 50 40.2406 50 37.5257V13.2242C50.0048 10.3431 47.6825 8 44.8269 8ZM47.5807 13.2242V37.5208C47.5807 37.8339 47.5128 38.1323 47.4013 38.4111L31.0676 25.2282L47.3383 12.0894C47.4934 12.4367 47.5807 12.8182 47.5807 13.2242ZM44.8269 10.4458C45.0305 10.4458 45.2245 10.4703 45.4136 10.5094L28.7016 24.0004H21.3032L4.59129 10.5094C4.78037 10.4703 4.97915 10.4458 5.17793 10.4458H44.8269ZM2.60351 38.4062C2.492 38.1274 2.42412 37.8339 2.42412 37.5159V13.2242C2.42412 12.8231 2.51139 12.4367 2.66654 12.0943L18.9373 25.2282L2.60351 38.4062ZM4.99369 40.0009C4.84825 40.0009 4.7028 39.9813 4.5622 39.9569L21.3032 26.4462H28.7016L45.4426 39.9569C45.302 39.9813 45.1614 40.0009 45.0111 40.0009H4.99369Z" fill="white"/>
</svg>
