<svg width="50" height="50" viewBox="0 0 50 50" fill="none" xmlns="http://www.w3.org/2000/svg">
<path d="M26.639 14.6446H8.33572C7.68573 14.6446 7.1582 14.1032 7.1582 13.4361C7.1582 12.769 7.68573 12.2275 8.33572 12.2275H26.6437C27.2937 12.2275 27.8212 12.769 27.8212 13.4361C27.8212 14.1032 27.2937 14.6446 26.639 14.6446Z" fill="white"/>
<path d="M42.2481 22.6417H8.33572C7.68573 22.6417 7.1582 22.1003 7.1582 21.4332C7.1582 20.766 7.68573 20.2246 8.33572 20.2246H42.2481C42.8981 20.2246 43.4257 20.766 43.4257 21.4332C43.4257 22.1003 42.8981 22.6417 42.2481 22.6417Z" fill="white"/>
<path d="M42.2481 30.6368H8.33572C7.68573 30.6368 7.1582 30.0954 7.1582 29.4283C7.1582 28.7612 7.68573 28.2197 8.33572 28.2197H42.2481C42.8981 28.2197 43.4257 28.7612 43.4257 29.4283C43.4257 30.0954 42.8981 30.6368 42.2481 30.6368Z" fill="white"/>
<path d="M8.94311 46.3612V38.4524H5.85331C3.178 38.4524 1.00195 36.2674 1.00195 33.5844V9.57306C1.00195 6.72573 3.25807 4.41016 6.0323 4.41016H44.5512C47.3254 4.41016 49.5815 6.72573 49.5815 9.57306V33.5844C49.5815 36.2674 47.4055 38.4524 44.7348 38.4524H17.9252L8.94311 46.3612ZM6.0323 6.82725C4.55805 6.82725 3.35698 8.05996 3.35698 9.57306V33.5844C3.35698 34.938 4.47798 36.0353 5.8486 36.0353H11.2934V41.1016L17.0491 36.0353H44.7254C46.1008 36.0353 47.2171 34.9332 47.2171 33.5844V9.57306C47.2171 8.05996 46.016 6.82725 44.5417 6.82725H6.0323Z" fill="white"/>
</svg>
