<svg width="48" height="48" viewBox="0 0 48 48" fill="none" xmlns="http://www.w3.org/2000/svg">
<path d="M26.7521 0.836004C25.0801 -0.278668 22.9199 -0.278668 21.2479 0.836004L0 15.0043V42.5579C0 45.1373 2.14643 47.2377 4.78111 47.2377H43.2189C45.8536 47.2377 48 45.1373 48 42.5579V15.0043L26.7521 0.836004ZM45.5726 43.2811L29.654 30.5452L45.7016 17.7081V42.5579C45.7016 42.8112 45.6463 43.0508 45.5726 43.2811ZM22.5284 2.75214C23.4219 2.15334 24.5781 2.15334 25.4763 2.75214L44.6928 15.5617L27.4062 29.3891H20.7136L3.37626 15.5202L22.5284 2.75214ZM2.45965 43.3502C2.36753 43.1014 2.30765 42.8389 2.30765 42.5579V17.616L18.4704 30.5452L2.45965 43.3502ZM4.78111 44.9347C4.59687 44.9347 4.41263 44.9116 4.2422 44.8748L20.7136 31.6968H27.4062L43.8453 44.8471C43.6427 44.8978 43.4354 44.9347 43.2189 44.9347H4.78111Z" fill="white"/>
</svg>
