<svg width="64" height="33" viewBox="0 0 64 33" fill="none" xmlns="http://www.w3.org/2000/svg">
<path d="M59.1897 0H22.357C19.7042 0 17.5469 2.17666 17.5469 4.85317V5.88469H5.63866C5.01713 5.88469 4.5127 6.39364 4.5127 7.02073C4.5127 7.64783 5.01713 8.15678 5.63866 8.15678H17.5514V23.8523H5.63866C5.01713 23.8523 4.5127 24.3613 4.5127 24.9884C4.5127 25.6155 5.01713 26.1244 5.63866 26.1244H17.5514V27.4286C17.5514 29.9506 19.6322 32.0046 22.1859 32.0046H59.3608C61.919 32.0046 63.9953 29.9506 63.9953 27.4286V4.85317C63.9998 2.17666 61.8425 0 59.1897 0ZM61.7479 4.85317V27.424C61.7479 27.7149 61.6848 27.9921 61.5812 28.2511L46.4077 16.0045L61.5227 3.79892C61.6668 4.12156 61.7479 4.476 61.7479 4.85317ZM59.1897 2.27208C59.3788 2.27208 59.559 2.2948 59.7346 2.33116L44.2098 14.864H37.3369L21.8121 2.33116C21.9877 2.2948 22.1724 2.27208 22.357 2.27208H59.1897ZM19.9655 28.2465C19.8619 27.9875 19.7988 27.7149 19.7988 27.4195V4.85317C19.7988 4.48055 19.8799 4.12156 20.024 3.80347L35.139 16.0045L19.9655 28.2465ZM22.1859 29.7279C22.0508 29.7279 21.9156 29.7097 21.785 29.687L37.3369 17.136H44.2098L59.7617 29.687C59.6311 29.7097 59.5004 29.7279 59.3608 29.7279H22.1859Z" fill="white"/>
<path d="M15.0429 16.0013C15.0429 15.3742 14.5385 14.8652 13.917 14.8652H1.12597C0.504433 14.8652 0 15.3742 0 16.0013C0 16.6284 0.504433 17.1373 1.12597 17.1373H13.917C14.5385 17.1373 15.0429 16.6284 15.0429 16.0013Z" fill="white"/>
</svg>
