<svg width="49" height="41" viewBox="0 0 49 41" fill="none" xmlns="http://www.w3.org/2000/svg">
<path d="M25.3333 9.92382H7.24659C6.60429 9.92382 6.08301 9.39882 6.08301 8.75195C6.08301 8.10508 6.60429 7.58008 7.24659 7.58008H25.3379C25.9802 7.58008 26.5015 8.10508 26.5015 8.75195C26.5015 9.39882 25.9802 9.92382 25.3333 9.92382Z" fill="white"/>
<path d="M40.7577 17.6758H7.24659C6.60429 17.6758 6.08301 17.1508 6.08301 16.5039C6.08301 15.857 6.60429 15.332 7.24659 15.332H40.7577C41.4 15.332 41.9213 15.857 41.9213 16.5039C41.9213 17.1508 41.4 17.6758 40.7577 17.6758Z" fill="white"/>
<path d="M40.7577 25.4297H7.24659C6.60429 25.4297 6.08301 24.9047 6.08301 24.2578C6.08301 23.6109 6.60429 23.0859 7.24659 23.0859H40.7577C41.4 23.0859 41.9213 23.6109 41.9213 24.2578C41.9213 24.9047 41.4 25.4297 40.7577 25.4297Z" fill="white"/>
<path d="M7.84718 40.678V33.0092H4.79395C2.1503 33.0092 0 30.8905 0 28.289V5.00623C0 2.2453 2.22942 0 4.97081 0H43.0338C45.7752 0 48.0046 2.2453 48.0046 5.00623V28.289C48.0046 30.8905 45.8544 33.0092 43.2154 33.0092H16.723L7.84718 40.678ZM4.97081 2.34374C3.51401 2.34374 2.32716 3.53905 2.32716 5.00623V28.289C2.32716 29.6014 3.43489 30.6655 4.78929 30.6655H10.1697V35.578L15.8573 30.6655H43.206C44.5651 30.6655 45.6682 29.5968 45.6682 28.289V5.00623C45.6682 3.53905 44.4813 2.34374 43.0245 2.34374H4.97081Z" fill="white"/>
</svg>
