<svg width="62" height="48" viewBox="0 0 62 48" fill="none" xmlns="http://www.w3.org/2000/svg">
<g clip-path="url(#clip0_9646_48490)">
<path d="M47.121 14.6414H13.0309L10.5318 5.81641H1.61095C1.05289 5.81641 0.599976 6.26753 0.599976 6.82337C0.599976 7.37922 1.05289 7.83034 1.61095 7.83034H9.00319L11.284 15.8901C11.288 15.9102 11.2961 15.9344 11.3001 15.9545L15.8859 32.1546H14.8668C12.6993 32.1546 10.9362 34.0114 10.9362 36.2952C10.9362 38.579 12.6993 40.4359 14.8668 40.4359H16.816C16.2539 41.2213 15.9183 42.1759 15.9183 43.2111C15.9183 45.8533 18.0737 48.0002 20.7265 48.0002C23.3792 48.0002 25.5346 45.8533 25.5346 43.2111C25.5346 42.1759 25.199 41.2213 24.6369 40.4359H33.493C32.9309 41.2213 32.5953 42.1759 32.5953 43.2111C32.5953 45.8533 34.7507 48.0002 37.4035 48.0002C40.0563 48.0002 42.2117 45.8533 42.2117 43.2111C42.2117 42.1759 41.876 41.2213 41.3139 40.4359H43.5259C44.084 40.4359 44.5369 39.9847 44.5369 39.4289C44.5369 38.873 44.084 38.4219 43.5259 38.4219H14.8668C13.8154 38.4219 12.9581 37.4673 12.9581 36.2952C12.9581 35.1231 13.8154 34.1685 14.8668 34.1685H18.2031H41.2573H42.5635C43.5866 34.1685 44.4763 33.512 44.7715 32.5372L49.3289 17.61C49.5433 16.9051 49.4139 16.164 48.9731 15.5719C48.5363 14.9798 47.861 14.6414 47.121 14.6414ZM23.5127 43.2111C23.5127 44.7416 22.2631 45.9862 20.7265 45.9862C19.1898 45.9862 17.9402 44.7416 17.9402 43.2111C17.9402 41.6805 19.1898 40.4359 20.7265 40.4359C22.2631 40.4359 23.5127 41.6805 23.5127 43.2111ZM40.1897 43.2111C40.1897 44.7416 38.9402 45.9862 37.4035 45.9862C35.8668 45.9862 34.6172 44.7416 34.6172 43.2111C34.6172 41.6805 35.8668 40.4359 37.4035 40.4359C38.9402 40.4359 40.1897 41.6805 40.1897 43.2111ZM29.3197 25.4079V32.1505H24.8027L23.7472 25.4079H29.3197ZM23.4318 23.394L22.3764 16.6513H29.3197V23.394H23.4318ZM31.3417 25.4079H36.9142L35.8587 32.1505H31.3417V25.4079ZM31.3417 23.394V16.6554H38.2851L37.2296 23.398H31.3417V23.394ZM20.3302 16.6554L21.3856 23.398H15.5098L13.6011 16.6554H20.3302ZM17.9321 31.9451L16.0841 25.4119H21.701L22.7565 32.1546H18.2071C18.0777 32.1506 17.9645 32.066 17.9321 31.9451ZM42.8385 31.9492C42.8021 32.07 42.6929 32.1505 42.5635 32.1505H41.2573H37.9049L38.9604 25.4079H44.8362L42.8385 31.9492ZM47.396 17.0219L45.4508 23.398H39.2758L40.3313 16.6554H47.121C47.2463 16.6554 47.3191 16.7279 47.3515 16.7722C47.3838 16.8125 47.4324 16.9011 47.396 17.0219Z" fill="white"/>
<path d="M50.7968 0C44.9494 0 40.1897 4.73676 40.1897 10.561C40.1897 11.0968 40.2301 11.6405 40.311 12.1722C40.3959 12.724 40.9136 13.1026 41.4635 13.014C42.0175 12.9294 42.3936 12.4139 42.3087 11.8661C42.244 11.4351 42.2076 10.9961 42.2076 10.561C42.2076 5.84845 46.0574 2.01393 50.7888 2.01393C55.5201 2.01393 59.3699 5.84845 59.3699 10.561C59.3699 14.7661 56.3532 18.3147 52.192 18.9954C51.642 19.084 51.2659 19.6036 51.3589 20.1514C51.4398 20.6428 51.8685 20.9932 52.3537 20.9932C52.4063 20.9932 52.4629 20.9892 52.5195 20.9811C57.6593 20.1393 61.3878 15.757 61.3878 10.561C61.3999 4.73676 56.6443 0 50.7968 0Z" fill="white"/>
<path d="M56.0419 11.7058C56.7132 11.7058 57.255 11.166 57.255 10.4974C57.255 9.8288 56.7132 9.28906 56.0419 9.28906H46.102C45.4307 9.28906 44.8888 9.8288 44.8888 10.4974C44.8888 11.166 45.4307 11.7058 46.102 11.7058H56.0419Z" fill="white"/>
</g>
<defs>
<clipPath id="clip0_9646_48490">
<rect width="60.8" height="48" fill="white" transform="translate(0.599976)"/>
</clipPath>
</defs>
</svg>
