<svg width="68" height="68" viewBox="0 0 68 68" fill="none" xmlns="http://www.w3.org/2000/svg">
<g clip-path="url(#clip0_9646_48524)">
<path d="M23.2264 58.9763C23.097 58.9416 22.9701 58.8977 22.847 58.84C22.1388 58.5264 21.6189 57.9168 21.4193 57.1652L19.5019 49.9822C19.4831 49.9228 19.4364 49.8756 19.3705 49.8629L12.0258 48.7068C11.261 48.5861 10.6004 48.1318 10.2149 47.4641C9.82942 46.7964 9.7663 45.9972 10.0441 45.2745L12.7153 38.3358C12.736 38.277 12.7244 38.2095 12.6764 38.1669L7.41111 32.9091C6.86465 32.3616 6.59661 31.6065 6.67455 30.8353C6.75711 30.0652 7.17351 29.3796 7.82556 28.9602L14.0687 24.9145C14.1226 24.8795 14.1492 24.8173 14.141 24.7556L12.9699 17.4112C12.8482 16.6459 13.0734 15.8794 13.5947 15.3011C14.1148 14.7275 14.8554 14.421 15.6274 14.4595L23.0521 14.8547C23.1159 14.8569 23.1745 14.8231 23.2044 14.7668L26.5745 8.13913C26.9226 7.4501 27.5584 6.96197 28.3198 6.79961C29.0753 6.64063 29.8576 6.82548 30.4596 7.31355L36.2345 11.9999C36.2825 12.0425 36.3509 12.046 36.4082 12.0168L43.0263 8.64094C43.7144 8.29057 44.5175 8.26812 45.2257 8.58165C45.9338 8.89518 46.4537 9.50485 46.6534 10.2565L48.5708 17.4394C48.5895 17.4989 48.6375 17.5414 48.6976 17.5575L56.0423 18.7135C56.807 18.8343 57.4676 19.2886 57.8531 19.9563C58.2386 20.624 58.3017 21.4232 58.0239 22.1459L55.3561 29.0904C55.3354 29.1492 55.347 29.2167 55.3938 29.2639L60.6557 34.5159C61.2022 35.0634 61.4702 35.8184 61.3923 36.5897C61.3097 37.3598 60.8933 38.0454 60.2412 38.4648L54.0027 42.5117C53.9488 42.5468 53.9222 42.609 53.9305 42.6706L55.1016 50.015C55.2233 50.7804 54.9981 51.5469 54.4767 52.1251C53.9567 52.6987 53.2206 53.0065 52.4441 52.9667L45.0193 52.5715C44.9555 52.5693 44.897 52.6031 44.867 52.6595L41.4969 59.2871C41.1489 59.9761 40.5131 60.4643 39.7516 60.6266C38.9961 60.7856 38.2138 60.6008 37.6118 60.1127L31.837 55.4263C31.7877 55.3883 31.7206 55.3803 31.6632 55.4095L25.0392 58.7887C24.4776 59.0739 23.8315 59.1384 23.2264 58.9763ZM20.0066 47.5627C20.8797 47.7966 21.5723 48.4823 21.8103 49.3679L23.7277 56.5509C23.7397 56.5986 23.7692 56.6363 23.8188 56.6545C23.8671 56.6773 23.9124 56.6746 23.958 56.6522L30.5833 53.2684C31.483 52.8113 32.567 52.9235 33.3521 53.5597L39.127 58.2461C39.1682 58.2769 39.2098 58.2881 39.2622 58.2774C39.3099 58.2654 39.3463 58.2405 39.3738 58.1934L42.7439 51.5658C43.2022 50.6686 44.1464 50.1196 45.1512 50.1759L52.576 50.5711C52.6247 50.5742 52.6691 50.5564 52.7045 50.5164C52.7388 50.481 52.7512 50.4348 52.7451 50.3837L51.574 43.0393C51.4143 42.0459 51.8604 41.0465 52.7061 40.4957L58.9446 36.4488C58.9868 36.4205 59.0118 36.3826 59.0162 36.3294C59.0193 36.2807 59.0061 36.2375 58.972 36.1987L53.7101 30.9467C52.9947 30.2351 52.7714 29.1653 53.1317 28.227L55.8029 21.2884C55.8199 21.2434 55.8184 21.1935 55.7901 21.1512C55.7631 21.1044 55.7252 21.0794 55.6778 21.0716L48.3331 19.9156C47.3358 19.7573 46.5255 19.0302 46.267 18.0549L44.3391 10.8741C44.3271 10.8264 44.2976 10.7887 44.248 10.7705C44.1997 10.7476 44.1544 10.7504 44.1088 10.7728L37.4894 14.1533C36.5896 14.6103 35.5057 14.4981 34.7206 13.8619L28.9457 9.17552C28.9045 9.14466 28.8629 9.13352 28.8105 9.14424C28.7627 9.1562 28.7263 9.18111 28.6989 9.22821L25.3287 15.8558C24.8705 16.753 23.9262 17.3021 22.9214 17.2457L15.4967 16.8505C15.448 16.8474 15.4036 16.8652 15.3681 16.9052C15.3339 16.9406 15.3215 16.9868 15.3276 17.0379L16.4987 24.3823C16.6571 25.3803 16.2123 26.3751 15.3666 26.9259L9.12811 30.9728C9.08587 31.0011 9.06087 31.039 9.05649 31.0923C9.05335 31.1409 9.06655 31.1841 9.1007 31.2229L14.3626 36.4749C15.078 37.1865 15.3013 38.2563 14.941 39.1946L12.2698 46.1333C12.2528 46.1782 12.2542 46.2281 12.2825 46.2704C12.305 46.316 12.3441 46.3364 12.3949 46.35L19.7396 47.506C19.8298 47.5203 19.9188 47.5392 20.0066 47.5627Z" fill="white"/>
<path d="M25.159 46.0074C24.4983 46.3889 23.9771 46.2492 23.5913 45.5873L19.5856 38.6492C19.4552 38.4234 19.4175 38.1992 19.4812 37.9789C19.5406 37.7574 19.681 37.5809 19.9067 37.4506L20.7217 36.98C21.0796 36.7734 21.4448 36.7828 21.8086 37.006L25.8311 39.5733L27.7973 41.0078L27.8579 40.9728C27.8452 40.9508 27.8217 40.9166 27.7865 40.8745C26.7984 39.5765 26.1126 38.5921 25.7236 37.9247L24.6363 36.0415C24.2548 35.3807 24.3945 34.8596 25.0564 34.4737C25.7172 34.0922 26.2383 34.2319 26.6242 34.8938L30.6299 41.8319C30.7602 42.0577 30.7979 42.2819 30.7386 42.5034C30.6792 42.7248 30.5345 42.9002 30.3087 43.0305L30.0059 43.2054L29.4332 43.536C29.1083 43.7236 28.7845 43.7159 28.4705 43.5154L24.3719 40.8672L22.4185 39.4548L22.3579 39.4898C22.473 39.6509 22.6563 39.9048 22.9035 40.2504C23.6596 41.2675 24.1843 42.0365 24.48 42.5486L25.5736 44.4428C25.9594 45.1047 25.8198 45.6259 25.159 46.0074Z" fill="white"/>
<path d="M33.8482 40.9905C33.6224 41.1208 33.3994 41.1541 33.1779 41.0948C32.9564 41.0354 32.7799 40.8951 32.6507 40.665L28.5103 33.4999C28.38 33.2741 28.3423 33.0499 28.406 32.8296C28.4654 32.6081 28.6057 32.4316 28.8315 32.3013L32.719 30.0568C33.2972 29.723 33.7489 29.844 34.0827 30.4222C34.4165 31.0004 34.2955 31.452 33.7173 31.7858L31.1568 33.2641L32.0883 34.8775L34.1202 33.7044C34.7039 33.3674 35.1642 33.4908 35.5012 34.0745C35.8382 34.6581 35.7148 35.1185 35.1311 35.4555L33.0993 36.6286L34.1643 38.4732L36.8404 36.9282C37.4241 36.5912 37.8844 36.7145 38.2214 37.2982C38.5584 37.8819 38.4351 38.3422 37.8514 38.6792L35.9021 39.8046L33.8482 40.9905Z" fill="white"/>
<path d="M41.8753 36.3592C41.6716 36.4768 41.4659 36.5148 41.2516 36.4807C41.0373 36.4465 40.8527 36.3366 40.6965 36.1551L35.2146 29.7058C35.0232 29.4823 34.9473 29.2618 34.9869 29.0443C35.0266 28.8269 35.1693 28.6417 35.4214 28.4998L36.0381 28.1437C36.2474 28.0229 36.4586 27.9818 36.6705 28.0246C36.8825 28.0674 37.0616 28.1806 37.2123 28.3652L39.5641 31.3832L41.5049 33.9373L41.5489 33.9119C41.202 32.9485 40.8418 31.9304 40.4726 30.8587L39.3353 27.2166C39.2525 26.9524 39.2743 26.6975 39.3919 26.4498C39.4993 26.2225 39.6857 26.0305 39.95 25.8779C40.2144 25.7253 40.4739 25.6598 40.7244 25.6804C40.9934 25.7013 41.225 25.8099 41.4168 26.0149L44.0243 28.8081C44.2918 29.1125 44.6886 29.5772 45.219 30.2034C45.6178 30.678 45.9171 31.0375 46.1193 31.2732L46.1799 31.2382C46.0022 30.8415 45.7504 30.2527 45.4212 29.4663C45.1933 28.9445 45.0232 28.5544 44.9163 28.2931L43.5826 24.9847C43.323 24.338 43.4895 23.838 44.0897 23.4915C44.8221 23.0687 45.3304 23.2561 45.6179 24.0592L48.4221 31.6947C48.5011 31.9207 48.4997 32.1345 48.4265 32.3383C48.3533 32.5421 48.212 32.7044 48.0095 32.8176L47.3652 33.1896L46.6769 33.587C46.4897 33.6951 46.2939 33.7311 46.0938 33.6961C45.8937 33.6611 45.7186 33.5676 45.5795 33.4093L43.0899 30.6104C42.5632 30.0224 42.0609 29.4131 41.5817 28.7867L41.5211 28.8216C41.5567 28.9149 41.6098 29.0641 41.6892 29.2716C41.9998 30.0577 42.219 30.647 42.3508 31.0408L43.5277 34.5352C43.6068 34.7612 43.6065 34.9706 43.529 35.1732C43.4525 35.3715 43.3125 35.5295 43.1087 35.6471L41.8753 36.3592Z" fill="white"/>
</g>
<defs>
<clipPath id="clip0_9646_48524">
<rect width="54.4" height="54.4" fill="white" transform="translate(14.8 0.400391) rotate(15)"/>
</clipPath>
</defs>
</svg>
