<svg width="12" height="13" viewBox="0 0 12 13" fill="none" xmlns="http://www.w3.org/2000/svg">
<path d="M0.33546 0.534678C0.550319 0.319884 0.841693 0.199219 1.1455 0.199219C1.44932 0.199219 1.74069 0.319884 1.95555 0.534678L6.00692 4.58605L10.0583 0.534678C10.2744 0.325971 10.5638 0.210486 10.8642 0.213096C11.1646 0.215707 11.452 0.336204 11.6644 0.548635C11.8768 0.761067 11.9973 1.04843 12 1.34885C12.0026 1.64926 11.8871 1.93868 11.6784 2.15477L7.62701 6.20614L11.6784 10.2575C11.8871 10.4736 12.0026 10.763 12 11.0634C11.9973 11.3638 11.8768 11.6512 11.6644 11.8636C11.452 12.0761 11.1646 12.1966 10.8642 12.1992C10.5638 12.2018 10.2744 12.0863 10.0583 11.8776L6.00692 7.82622L1.95555 11.8776C1.73946 12.0863 1.45004 12.2018 1.14963 12.1992C0.849216 12.1966 0.561848 12.0761 0.349417 11.8636C0.136985 11.6512 0.0164882 11.3638 0.0138777 11.0634C0.0112672 10.763 0.126752 10.4736 0.33546 10.2575L4.38683 6.20614L0.33546 2.15477C0.120665 1.93991 0 1.64853 0 1.34472C0 1.04091 0.120665 0.749538 0.33546 0.534678Z" fill="#71AFB6"/>
</svg>
